<?xml version="1.0"?><svg width="793.7007874015749" height="1122.5196850393702" xmlns="http://www.w3.org/2000/svg">
 <title>Hospital Logo</title>
 <metadata id="metadata18081">image/svg+xmlPublic Domainclker.comMohamed Ibrahimmap symbolsmap symbols</metadata>

 <g>
  <title>Layer 1</title>
  <path fill="#ffffff" fill-rule="nonzero" id="path6814" d="m94.481758,270.761078c-38.211849,0 -69.245258,31.034149 -69.245258,69.174896l0,530.524658c0,38.21106 31.033409,69.244507 69.245258,69.244507l530.454277,0c38.140747,0 69.174133,-31.033447 69.174133,-69.244507l0,-530.524658c0,-38.140747 -31.033386,-69.174896 -69.174133,-69.174896l-530.454277,0z"/>
  <path fill="#0089cf" fill-rule="nonzero" id="path6816" d="m662.11261,909.841553c45.95166,0 83.248047,-37.296326 83.248047,-83.318359l0,-530.524658c0,-45.882065 -37.296387,-83.319168 -83.248047,-83.319168l-530.4543,0c-46.093132,0 -83.319145,37.437103 -83.319145,83.319168l0,530.524658c0,46.022034 37.226013,83.318359 83.319145,83.318359l530.4543,0z"/>
  <path fill="#ffffff" fill-rule="nonzero" id="path6818" d="m498.715607,354.345093l0,147.707886l-186.692993,0l0,-147.707886l-93.452042,0l0,434.187012l93.452042,0l0,-193.167786l186.692993,0l0,193.167786l93.523163,0l0,-434.187012l-93.523163,0z"/>
  <rect id="svg_3" height="44" width="156" y="298.439331" x="553.40271" fill="#7f003f"/>
  <rect id="svg_4" height="150" width="52" y="245.439331" x="605.40271" fill="#7f003f"/>
 </g>
</svg>